<svg xmlns="http://www.w3.org/2000/svg" width="32" height="32" fill="none">
  <rect width="32" height="32" fill="currentColor" rx="16"/>
  <g clip-path="url(#a)">
    <path stroke="#fff" stroke-width="1.5" d="m16.18 12.04.463-.464a1.966 1.966 0 1 1 2.781 2.78l-.463.464m-2.781-2.78s.058.984.927 1.853 1.854.927 1.854.927m-2.781-2.78-4.26 4.26c-.29.288-.434.433-.558.592-.146.188-.271.39-.374.605-.087.183-.151.376-.28.763l-.547 1.641m8.8-5.081-4.26 4.26c-.29.29-.434.434-.593.558-.188.146-.39.271-.606.374-.182.087-.375.151-.762.28l-1.641.547m0 0-.401.134a.53.53 0 0 1-.67-.67l.133-.402m.938.938-.938-.938"/>
  </g>
  <defs>
    <clipPath id="a">
      <path fill="#fff" d="M9 10h12v12H9z"/>
    </clipPath>
  </defs>
</svg>
